{
	"patcher" : 	{
		"fileversion" : 1,
		"appversion" : 		{
			"major" : 7,
			"minor" : 0,
			"revision" : 6,
			"architecture" : "x64",
			"modernui" : 1
		}
,
		"rect" : [ 26.0, 115.0, 1468.0, 715.0 ],
		"bglocked" : 0,
		"openinpresentation" : 0,
		"default_fontsize" : 12.0,
		"default_fontface" : 0,
		"default_fontname" : "Arial",
		"gridonopen" : 1,
		"gridsize" : [ 15.0, 15.0 ],
		"gridsnaponopen" : 1,
		"objectsnaponopen" : 1,
		"statusbarvisible" : 2,
		"toolbarvisible" : 1,
		"lefttoolbarpinned" : 0,
		"toptoolbarpinned" : 0,
		"righttoolbarpinned" : 0,
		"bottomtoolbarpinned" : 0,
		"toolbars_unpinned_last_save" : 0,
		"tallnewobj" : 0,
		"boxanimatetime" : 200,
		"enablehscroll" : 1,
		"enablevscroll" : 1,
		"devicewidth" : 0.0,
		"description" : "",
		"digest" : "",
		"tags" : "",
		"style" : "",
		"subpatcher_template" : "",
		"boxes" : [ 			{
				"box" : 				{
					"fontface" : 2,
					"fontname" : "Bauhaus 93",
					"fontsize" : 16.0,
					"id" : "obj-42",
					"maxclass" : "comment",
					"numinlets" : 1,
					"numoutlets" : 0,
					"patching_rect" : [ 454.399994, 191.25, 76.0625, 30.0 ],
					"style" : "",
					"text" : "Main Vol",
					"textcolor" : [ 0.231373, 0.121569, 0.305882, 1.0 ]
				}

			}
, 			{
				"box" : 				{
					"fontface" : 2,
					"fontname" : "Bauhaus 93",
					"fontsize" : 16.0,
					"id" : "obj-43",
					"maxclass" : "comment",
					"numinlets" : 1,
					"numoutlets" : 0,
					"patching_rect" : [ 169.649994, 110.5, 77.0, 30.0 ],
					"style" : "",
					"text" : "Dry/Wet",
					"textcolor" : [ 0.231373, 0.121569, 0.305882, 1.0 ]
				}

			}
, 			{
				"box" : 				{
					"fontface" : 2,
					"fontname" : "Bauhaus 93",
					"fontsize" : 16.0,
					"id" : "obj-44",
					"maxclass" : "comment",
					"numinlets" : 1,
					"numoutlets" : 0,
					"patching_rect" : [ 94.400009, 17.0, 60.0, 30.0 ],
					"style" : "",
					"text" : "Depth",
					"textcolor" : [ 0.231373, 0.121569, 0.305882, 1.0 ]
				}

			}
, 			{
				"box" : 				{
					"fontface" : 2,
					"fontname" : "Bauhaus 93",
					"fontsize" : 16.0,
					"id" : "obj-48",
					"maxclass" : "comment",
					"numinlets" : 1,
					"numoutlets" : 0,
					"patching_rect" : [ 92.400009, 200.25, 60.0, 30.0 ],
					"style" : "",
					"text" : "R Feed",
					"textcolor" : [ 0.231373, 0.121569, 0.305882, 1.0 ]
				}

			}
, 			{
				"box" : 				{
					"fontface" : 2,
					"fontname" : "Bauhaus 93",
					"fontsize" : 16.0,
					"id" : "obj-53",
					"maxclass" : "comment",
					"numinlets" : 1,
					"numoutlets" : 0,
					"patching_rect" : [ 9.400004, 200.25, 56.0, 30.0 ],
					"style" : "",
					"text" : "L Feed",
					"textcolor" : [ 0.231373, 0.121569, 0.305882, 1.0 ]
				}

			}
, 			{
				"box" : 				{
					"fontface" : 2,
					"fontname" : "Bauhaus 93",
					"fontsize" : 16.0,
					"id" : "obj-57",
					"maxclass" : "comment",
					"numinlets" : 1,
					"numoutlets" : 0,
					"patching_rect" : [ 177.774994, 17.0, 50.0, 30.0 ],
					"style" : "",
					"text" : "Mod",
					"textcolor" : [ 0.231373, 0.121569, 0.305882, 1.0 ]
				}

			}
, 			{
				"box" : 				{
					"fontface" : 2,
					"fontname" : "Bauhaus 93",
					"fontsize" : 16.0,
					"id" : "obj-58",
					"maxclass" : "comment",
					"numinlets" : 1,
					"numoutlets" : 0,
					"patching_rect" : [ 92.400009, 112.75, 69.0, 30.0 ],
					"style" : "",
					"text" : "R Delay ",
					"textcolor" : [ 0.231373, 0.121569, 0.305882, 1.0 ]
				}

			}
, 			{
				"box" : 				{
					"fontface" : 2,
					"fontname" : "Bauhaus 93",
					"fontsize" : 16.0,
					"id" : "obj-59",
					"maxclass" : "comment",
					"numinlets" : 1,
					"numoutlets" : 0,
					"patching_rect" : [ 9.400004, 112.75, 68.0, 30.0 ],
					"style" : "",
					"text" : "L Delay ",
					"textcolor" : [ 0.231373, 0.121569, 0.305882, 1.0 ]
				}

			}
, 			{
				"box" : 				{
					"fontface" : 2,
					"fontname" : "Bauhaus 93",
					"fontsize" : 16.0,
					"id" : "obj-60",
					"maxclass" : "comment",
					"numinlets" : 1,
					"numoutlets" : 0,
					"patching_rect" : [ 11.400004, 17.0, 77.0, 30.0 ],
					"style" : "",
					"text" : "Rate [Hz]",
					"textcolor" : [ 0.231373, 0.121569, 0.305882, 1.0 ]
				}

			}
, 			{
				"box" : 				{
					"fontface" : 2,
					"fontname" : "Bauhaus 93",
					"fontsize" : 16.0,
					"id" : "obj-12",
					"maxclass" : "comment",
					"numinlets" : 1,
					"numoutlets" : 0,
					"patching_rect" : [ 451.25, 191.25, 76.0625, 30.0 ],
					"style" : "",
					"text" : "Main Vol",
					"textcolor" : [ 0.960784, 0.827451, 0.156863, 1.0 ]
				}

			}
, 			{
				"box" : 				{
					"fontface" : 2,
					"fontname" : "Bauhaus 93",
					"fontsize" : 16.0,
					"id" : "obj-17",
					"maxclass" : "comment",
					"numinlets" : 1,
					"numoutlets" : 0,
					"patching_rect" : [ 166.5, 110.5, 77.0, 30.0 ],
					"style" : "",
					"text" : "Dry/Wet",
					"textcolor" : [ 0.960784, 0.827451, 0.156863, 1.0 ]
				}

			}
, 			{
				"box" : 				{
					"fontface" : 2,
					"fontname" : "Bauhaus 93",
					"fontsize" : 16.0,
					"id" : "obj-19",
					"maxclass" : "comment",
					"numinlets" : 1,
					"numoutlets" : 0,
					"patching_rect" : [ 91.25, 17.0, 60.0, 30.0 ],
					"style" : "",
					"text" : "Depth",
					"textcolor" : [ 0.960784, 0.827451, 0.156863, 1.0 ]
				}

			}
, 			{
				"box" : 				{
					"fontface" : 2,
					"fontname" : "Bauhaus 93",
					"fontsize" : 16.0,
					"id" : "obj-20",
					"maxclass" : "comment",
					"numinlets" : 1,
					"numoutlets" : 0,
					"patching_rect" : [ 89.25, 200.25, 60.0, 30.0 ],
					"style" : "",
					"text" : "R Feed",
					"textcolor" : [ 0.960784, 0.827451, 0.156863, 1.0 ]
				}

			}
, 			{
				"box" : 				{
					"fontface" : 2,
					"fontname" : "Bauhaus 93",
					"fontsize" : 16.0,
					"id" : "obj-21",
					"maxclass" : "comment",
					"numinlets" : 1,
					"numoutlets" : 0,
					"patching_rect" : [ 6.25, 200.25, 56.0, 30.0 ],
					"style" : "",
					"text" : "L Feed",
					"textcolor" : [ 0.960784, 0.827451, 0.156863, 1.0 ]
				}

			}
, 			{
				"box" : 				{
					"fontface" : 2,
					"fontname" : "Bauhaus 93",
					"fontsize" : 16.0,
					"id" : "obj-22",
					"maxclass" : "comment",
					"numinlets" : 1,
					"numoutlets" : 0,
					"patching_rect" : [ 174.625, 17.0, 50.0, 30.0 ],
					"style" : "",
					"text" : "Mod",
					"textcolor" : [ 0.960784, 0.827451, 0.156863, 1.0 ]
				}

			}
, 			{
				"box" : 				{
					"fontface" : 2,
					"fontname" : "Bauhaus 93",
					"fontsize" : 16.0,
					"id" : "obj-33",
					"maxclass" : "comment",
					"numinlets" : 1,
					"numoutlets" : 0,
					"patching_rect" : [ 89.25, 112.75, 69.0, 30.0 ],
					"style" : "",
					"text" : "R Delay ",
					"textcolor" : [ 0.960784, 0.827451, 0.156863, 1.0 ]
				}

			}
, 			{
				"box" : 				{
					"fontface" : 2,
					"fontname" : "Bauhaus 93",
					"fontsize" : 16.0,
					"id" : "obj-34",
					"maxclass" : "comment",
					"numinlets" : 1,
					"numoutlets" : 0,
					"patching_rect" : [ 6.25, 112.75, 68.0, 30.0 ],
					"style" : "",
					"text" : "L Delay ",
					"textcolor" : [ 0.960784, 0.827451, 0.156863, 1.0 ]
				}

			}
, 			{
				"box" : 				{
					"fontface" : 2,
					"fontname" : "Bauhaus 93",
					"fontsize" : 16.0,
					"id" : "obj-39",
					"maxclass" : "comment",
					"numinlets" : 1,
					"numoutlets" : 0,
					"patching_rect" : [ 8.25, 17.0, 77.0, 30.0 ],
					"style" : "",
					"text" : "Rate [Hz]",
					"textcolor" : [ 0.960784, 0.827451, 0.156863, 1.0 ]
				}

			}
, 			{
				"box" : 				{
					"fontface" : 3,
					"fontname" : "AR DESTINE",
					"fontsize" : 64.0,
					"id" : "obj-7",
					"maxclass" : "comment",
					"numinlets" : 1,
					"numoutlets" : 0,
					"patching_rect" : [ 222.1875, -4.0, 249.875, 80.0 ],
					"style" : "",
					"text" : "Galactic",
					"textcolor" : [ 0.231373, 0.121569, 0.305882, 1.0 ]
				}

			}
, 			{
				"box" : 				{
					"fontname" : "AR DESTINE",
					"fontsize" : 64.0,
					"id" : "obj-11",
					"maxclass" : "comment",
					"numinlets" : 1,
					"numoutlets" : 0,
					"patching_rect" : [ 291.3125, 45.5, 232.0, 80.0 ],
					"style" : "",
					"text" : "Flanger",
					"textcolor" : [ 0.231373, 0.121569, 0.305882, 1.0 ]
				}

			}
, 			{
				"box" : 				{
					"bgcolor" : [ 0.095481, 0.100396, 0.100293, 0.0 ],
					"fontname" : "Bauhaus 93",
					"format" : 6,
					"htricolor" : [ 0.92549, 0.364706, 0.341176, 1.0 ],
					"id" : "obj-56",
					"maxclass" : "flonum",
					"numinlets" : 1,
					"numoutlets" : 2,
					"outlettype" : [ "", "bang" ],
					"parameter_enable" : 0,
					"patching_rect" : [ 464.25, 260.75, 42.0, 26.0 ],
					"style" : "",
					"textcolor" : [ 0.231373, 0.121569, 0.305882, 1.0 ],
					"tricolor" : [ 0.231373, 0.121569, 0.305882, 1.0 ]
				}

			}
, 			{
				"box" : 				{
					"bgcolor" : [ 0.095481, 0.100396, 0.100293, 0.0 ],
					"fontname" : "Bauhaus 93",
					"format" : 6,
					"htricolor" : [ 0.92549, 0.364706, 0.341176, 1.0 ],
					"id" : "obj-52",
					"maxclass" : "flonum",
					"numinlets" : 1,
					"numoutlets" : 2,
					"outlettype" : [ "", "bang" ],
					"parameter_enable" : 0,
					"patching_rect" : [ 179.375, 82.5, 41.0, 26.0 ],
					"style" : "",
					"textcolor" : [ 0.231373, 0.121569, 0.305882, 1.0 ],
					"tricolor" : [ 0.231373, 0.121569, 0.305882, 1.0 ]
				}

			}
, 			{
				"box" : 				{
					"bgcolor" : [ 0.095481, 0.100396, 0.100293, 0.0 ],
					"fontname" : "Bauhaus 93",
					"format" : 6,
					"htricolor" : [ 0.92549, 0.364706, 0.341176, 1.0 ],
					"id" : "obj-51",
					"maxclass" : "flonum",
					"numinlets" : 1,
					"numoutlets" : 2,
					"outlettype" : [ "", "bang" ],
					"parameter_enable" : 0,
					"patching_rect" : [ 98.0, 82.5, 42.0, 26.0 ],
					"style" : "",
					"textcolor" : [ 0.231373, 0.121569, 0.305882, 1.0 ],
					"tricolor" : [ 0.231373, 0.121569, 0.305882, 1.0 ]
				}

			}
, 			{
				"box" : 				{
					"bgcolor" : [ 0.095481, 0.100396, 0.100293, 0.0 ],
					"fontname" : "Bauhaus 93",
					"format" : 6,
					"htricolor" : [ 0.92549, 0.364706, 0.341176, 1.0 ],
					"id" : "obj-50",
					"maxclass" : "flonum",
					"numinlets" : 1,
					"numoutlets" : 2,
					"outlettype" : [ "", "bang" ],
					"parameter_enable" : 0,
					"patching_rect" : [ 16.0, 82.5, 42.0, 26.0 ],
					"style" : "",
					"textcolor" : [ 0.231373, 0.121569, 0.305882, 1.0 ],
					"tricolor" : [ 0.231373, 0.121569, 0.305882, 1.0 ]
				}

			}
, 			{
				"box" : 				{
					"bgcolor" : [ 0.095481, 0.100396, 0.100293, 0.0 ],
					"fontname" : "Bauhaus 93",
					"format" : 6,
					"htricolor" : [ 0.92549, 0.364706, 0.341176, 1.0 ],
					"id" : "obj-49",
					"maxclass" : "flonum",
					"numinlets" : 1,
					"numoutlets" : 2,
					"outlettype" : [ "", "bang" ],
					"parameter_enable" : 0,
					"patching_rect" : [ 14.0, 175.0, 42.0, 26.0 ],
					"style" : "",
					"textcolor" : [ 0.231373, 0.121569, 0.305882, 1.0 ],
					"tricolor" : [ 0.231373, 0.121569, 0.305882, 1.0 ]
				}

			}
, 			{
				"box" : 				{
					"bgcolor" : [ 0.095481, 0.100396, 0.100293, 0.0 ],
					"fontname" : "Bauhaus 93",
					"format" : 6,
					"htricolor" : [ 0.92549, 0.364706, 0.341176, 1.0 ],
					"id" : "obj-47",
					"maxclass" : "flonum",
					"numinlets" : 1,
					"numoutlets" : 2,
					"outlettype" : [ "", "bang" ],
					"parameter_enable" : 0,
					"patching_rect" : [ 96.0, 175.0, 41.0, 26.0 ],
					"style" : "",
					"textcolor" : [ 0.231373, 0.121569, 0.305882, 1.0 ],
					"tricolor" : [ 0.231373, 0.121569, 0.305882, 1.0 ]
				}

			}
, 			{
				"box" : 				{
					"bgcolor" : [ 0.095481, 0.100396, 0.100293, 0.0 ],
					"fontname" : "Bauhaus 93",
					"format" : 6,
					"htricolor" : [ 0.92549, 0.364706, 0.341176, 1.0 ],
					"id" : "obj-46",
					"maxclass" : "flonum",
					"numinlets" : 1,
					"numoutlets" : 2,
					"outlettype" : [ "", "bang" ],
					"parameter_enable" : 0,
					"patching_rect" : [ 96.0, 260.75, 40.0, 26.0 ],
					"style" : "",
					"textcolor" : [ 0.231373, 0.121569, 0.305882, 1.0 ],
					"tricolor" : [ 0.231373, 0.121569, 0.305882, 1.0 ]
				}

			}
, 			{
				"box" : 				{
					"bgcolor" : [ 0.095481, 0.100396, 0.100293, 0.0 ],
					"fontname" : "Bauhaus 93",
					"format" : 6,
					"htricolor" : [ 0.92549, 0.364706, 0.341176, 1.0 ],
					"id" : "obj-45",
					"maxclass" : "flonum",
					"numinlets" : 1,
					"numoutlets" : 2,
					"outlettype" : [ "", "bang" ],
					"parameter_enable" : 0,
					"patching_rect" : [ 13.75, 260.75, 41.0, 26.0 ],
					"style" : "",
					"textcolor" : [ 0.231373, 0.121569, 0.305882, 1.0 ],
					"tricolor" : [ 0.231373, 0.121569, 0.305882, 1.0 ]
				}

			}
, 			{
				"box" : 				{
					"bgcolor" : [ 0.372549, 0.196078, 0.486275, 1.0 ],
					"elementcolor" : [ 0.984314, 0.894118, 0.0, 1.0 ],
					"floatoutput" : 1,
					"id" : "obj-36",
					"knobcolor" : [ 0.92549, 0.364706, 0.341176, 1.0 ],
					"maxclass" : "slider",
					"numinlets" : 1,
					"numoutlets" : 1,
					"outlettype" : [ "" ],
					"parameter_enable" : 0,
					"patching_rect" : [ 57.0, 40.5, 12.0, 40.5 ],
					"size" : 1.0,
					"style" : "",
					"varname" : "Rate[1]"
				}

			}
, 			{
				"box" : 				{
					"bgfillcolor_angle" : 270.0,
					"bgfillcolor_autogradient" : 0,
					"bgfillcolor_color" : [ 0.290196, 0.309804, 0.301961, 1.0 ],
					"bgfillcolor_color1" : [ 0.92549, 0.364706, 0.341176, 0.0 ],
					"bgfillcolor_color2" : [ 0.92549, 0.364706, 0.341176, 1.0 ],
					"bgfillcolor_proportion" : 0.39,
					"bgfillcolor_type" : "gradient",
					"color" : [ 0.788235, 0.8, 0.843137, 0.0 ],
					"elementcolor" : [ 0.788235, 0.8, 0.843137, 0.0 ],
					"fontface" : 2,
					"fontname" : "Bauhaus 93",
					"fontsize" : 16.0,
					"id" : "obj-31",
					"items" : [ "Milky", "Way", ",", "Andromeda", ",", "Centaurus", ",", "Triangulum", ",", "Hoag's", "Object" ],
					"maxclass" : "umenu",
					"numinlets" : 1,
					"numoutlets" : 3,
					"outlettype" : [ "int", "", "" ],
					"parameter_enable" : 0,
					"patching_rect" : [ 249.125, 130.5, 204.0, 32.0 ],
					"style" : "",
					"textcolor" : [ 0.231373, 0.121569, 0.305882, 1.0 ]
				}

			}
, 			{
				"box" : 				{
					"fontface" : 2,
					"fontname" : "Bauhaus 93",
					"fontsize" : 16.0,
					"id" : "obj-40",
					"maxclass" : "comment",
					"numinlets" : 1,
					"numoutlets" : 0,
					"patching_rect" : [ 451.25, 191.25, 76.0625, 30.0 ],
					"style" : "",
					"text" : "Main Vol"
				}

			}
, 			{
				"box" : 				{
					"fontface" : 2,
					"fontname" : "Bauhaus 93",
					"fontsize" : 16.0,
					"id" : "obj-37",
					"maxclass" : "comment",
					"numinlets" : 1,
					"numoutlets" : 0,
					"patching_rect" : [ 166.5, 110.5, 77.0, 30.0 ],
					"style" : "",
					"text" : "Dry/Wet"
				}

			}
, 			{
				"box" : 				{
					"fontface" : 2,
					"fontname" : "Bauhaus 93",
					"fontsize" : 16.0,
					"id" : "obj-32",
					"maxclass" : "comment",
					"numinlets" : 1,
					"numoutlets" : 0,
					"patching_rect" : [ 91.25, 17.0, 60.0, 30.0 ],
					"style" : "",
					"text" : "Depth"
				}

			}
, 			{
				"box" : 				{
					"fontface" : 2,
					"fontname" : "Bauhaus 93",
					"fontsize" : 16.0,
					"id" : "obj-30",
					"maxclass" : "comment",
					"numinlets" : 1,
					"numoutlets" : 0,
					"patching_rect" : [ 89.25, 200.25, 60.0, 30.0 ],
					"style" : "",
					"text" : "R Feed"
				}

			}
, 			{
				"box" : 				{
					"fontface" : 2,
					"fontname" : "Bauhaus 93",
					"fontsize" : 16.0,
					"id" : "obj-29",
					"maxclass" : "comment",
					"numinlets" : 1,
					"numoutlets" : 0,
					"patching_rect" : [ 6.25, 200.25, 56.0, 30.0 ],
					"style" : "",
					"text" : "L Feed"
				}

			}
, 			{
				"box" : 				{
					"fontface" : 2,
					"fontname" : "Bauhaus 93",
					"fontsize" : 16.0,
					"id" : "obj-28",
					"maxclass" : "comment",
					"numinlets" : 1,
					"numoutlets" : 0,
					"patching_rect" : [ 174.625, 17.0, 50.0, 30.0 ],
					"style" : "",
					"text" : "Mod"
				}

			}
, 			{
				"box" : 				{
					"fontface" : 2,
					"fontname" : "Bauhaus 93",
					"fontsize" : 16.0,
					"id" : "obj-27",
					"maxclass" : "comment",
					"numinlets" : 1,
					"numoutlets" : 0,
					"patching_rect" : [ 89.25, 112.75, 69.0, 30.0 ],
					"style" : "",
					"text" : "R Delay "
				}

			}
, 			{
				"box" : 				{
					"fontface" : 2,
					"fontname" : "Bauhaus 93",
					"fontsize" : 16.0,
					"id" : "obj-24",
					"maxclass" : "comment",
					"numinlets" : 1,
					"numoutlets" : 0,
					"patching_rect" : [ 6.25, 112.75, 68.0, 30.0 ],
					"style" : "",
					"text" : "L Delay "
				}

			}
, 			{
				"box" : 				{
					"fontface" : 2,
					"fontname" : "Bauhaus 93",
					"fontsize" : 16.0,
					"id" : "obj-26",
					"maxclass" : "comment",
					"numinlets" : 1,
					"numoutlets" : 0,
					"patching_rect" : [ 8.25, 17.0, 77.0, 30.0 ],
					"style" : "",
					"text" : "Rate [Hz]"
				}

			}
, 			{
				"box" : 				{
					"fontface" : 3,
					"fontname" : "AR DESTINE",
					"fontsize" : 64.0,
					"id" : "obj-23",
					"maxclass" : "comment",
					"numinlets" : 1,
					"numoutlets" : 0,
					"patching_rect" : [ 226.1875, -4.0, 249.875, 80.0 ],
					"style" : "",
					"text" : "Galactic",
					"textcolor" : [ 0.960784, 0.827451, 0.156863, 1.0 ]
				}

			}
, 			{
				"box" : 				{
					"fontname" : "AR DESTINE",
					"fontsize" : 64.0,
					"id" : "obj-25",
					"maxclass" : "comment",
					"numinlets" : 1,
					"numoutlets" : 0,
					"patching_rect" : [ 295.3125, 45.5, 232.0, 80.0 ],
					"style" : "",
					"text" : "Flanger",
					"textcolor" : [ 0.960784, 0.827451, 0.156863, 1.0 ]
				}

			}
, 			{
				"box" : 				{
					"id" : "obj-18",
					"maxclass" : "live.dial",
					"numinlets" : 1,
					"numoutlets" : 2,
					"outlettype" : [ "", "float" ],
					"parameter_enable" : 1,
					"patching_rect" : [ 179.375, 40.5, 44.0, 47.0 ],
					"saved_attribute_attributes" : 					{
						"valueof" : 						{
							"parameter_longname" : "live.dial[3]",
							"parameter_shortname" : "live.dial",
							"parameter_type" : 0,
							"parameter_unitstyle" : 0
						}

					}
,
					"varname" : "Mod"
				}

			}
, 			{
				"box" : 				{
					"id" : "obj-16",
					"maxclass" : "live.dial",
					"numinlets" : 1,
					"numoutlets" : 2,
					"outlettype" : [ "", "float" ],
					"parameter_enable" : 1,
					"patching_rect" : [ 98.0, 42.5, 44.0, 47.0 ],
					"saved_attribute_attributes" : 					{
						"valueof" : 						{
							"parameter_longname" : "live.dial[4]",
							"parameter_shortname" : "live.dial",
							"parameter_type" : 0,
							"parameter_unitstyle" : 0
						}

					}
,
					"varname" : "Depth"
				}

			}
, 			{
				"box" : 				{
					"id" : "obj-15",
					"maxclass" : "live.dial",
					"numinlets" : 1,
					"numoutlets" : 2,
					"outlettype" : [ "", "float" ],
					"parameter_enable" : 1,
					"patching_rect" : [ 16.0, 40.5, 44.0, 47.0 ],
					"saved_attribute_attributes" : 					{
						"valueof" : 						{
							"parameter_longname" : "live.dial[5]",
							"parameter_shortname" : "live.dial",
							"parameter_type" : 0,
							"parameter_unitstyle" : 0
						}

					}
,
					"varname" : "Rate"
				}

			}
, 			{
				"box" : 				{
					"id" : "obj-14",
					"maxclass" : "live.dial",
					"numinlets" : 1,
					"numoutlets" : 2,
					"outlettype" : [ "", "float" ],
					"parameter_enable" : 1,
					"patching_rect" : [ 179.375, 132.5, 44.0, 47.0 ],
					"saved_attribute_attributes" : 					{
						"valueof" : 						{
							"parameter_longname" : "live.dial[2]",
							"parameter_shortname" : "live.dial",
							"parameter_type" : 0,
							"parameter_unitstyle" : 0
						}

					}
,
					"varname" : "Dry/Wet"
				}

			}
, 			{
				"box" : 				{
					"id" : "obj-13",
					"maxclass" : "live.dial",
					"numinlets" : 1,
					"numoutlets" : 2,
					"outlettype" : [ "", "float" ],
					"parameter_enable" : 1,
					"patching_rect" : [ 96.0, 132.5, 44.0, 47.0 ],
					"saved_attribute_attributes" : 					{
						"valueof" : 						{
							"parameter_longname" : "live.dial[9]",
							"parameter_shortname" : "live.dial",
							"parameter_type" : 0,
							"parameter_unitstyle" : 0
						}

					}
,
					"varname" : "RightDelay"
				}

			}
, 			{
				"box" : 				{
					"id" : "obj-10",
					"maxclass" : "live.dial",
					"numinlets" : 1,
					"numoutlets" : 2,
					"outlettype" : [ "", "float" ],
					"parameter_enable" : 1,
					"patching_rect" : [ 96.0, 219.25, 44.0, 47.0 ],
					"saved_attribute_attributes" : 					{
						"valueof" : 						{
							"parameter_longname" : "live.dial[8]",
							"parameter_shortname" : "live.dial",
							"parameter_type" : 0,
							"parameter_unitstyle" : 0
						}

					}
,
					"varname" : "RightFeed"
				}

			}
, 			{
				"box" : 				{
					"id" : "obj-9",
					"maxclass" : "live.dial",
					"numinlets" : 1,
					"numoutlets" : 2,
					"outlettype" : [ "", "float" ],
					"parameter_enable" : 1,
					"patching_rect" : [ 14.0, 132.5, 44.0, 47.0 ],
					"saved_attribute_attributes" : 					{
						"valueof" : 						{
							"parameter_longname" : "live.dial[6]",
							"parameter_shortname" : "live.dial",
							"parameter_type" : 0,
							"parameter_unitstyle" : 0
						}

					}
,
					"varname" : "LeftDelay"
				}

			}
, 			{
				"box" : 				{
					"id" : "obj-8",
					"maxclass" : "live.dial",
					"numinlets" : 1,
					"numoutlets" : 2,
					"outlettype" : [ "", "float" ],
					"parameter_enable" : 1,
					"patching_rect" : [ 13.75, 219.25, 44.0, 47.0 ],
					"saved_attribute_attributes" : 					{
						"valueof" : 						{
							"parameter_longname" : "live.dial[7]",
							"parameter_shortname" : "live.dial",
							"parameter_type" : 0,
							"parameter_unitstyle" : 0
						}

					}
,
					"varname" : "LeftFeed"
				}

			}
, 			{
				"box" : 				{
					"id" : "obj-5",
					"maxclass" : "live.dial",
					"numinlets" : 1,
					"numoutlets" : 2,
					"outlettype" : [ "", "float" ],
					"parameter_enable" : 1,
					"patching_rect" : [ 466.25, 218.25, 44.0, 47.0 ],
					"saved_attribute_attributes" : 					{
						"valueof" : 						{
							"parameter_longname" : "live.dial[1]",
							"parameter_shortname" : "live.dial",
							"parameter_type" : 0,
							"parameter_unitstyle" : 0
						}

					}
,
					"varname" : "Vol"
				}

			}
, 			{
				"box" : 				{
					"angle" : 270.0,
					"bordercolor" : [ 0.0, 0.0, 0.0, 1.0 ],
					"grad1" : [ 0.960784, 0.439216, 0.478431, 1.0 ],
					"grad2" : [ 0.960784, 0.827451, 0.156863, 1.0 ],
					"id" : "obj-55",
					"maxclass" : "panel",
					"mode" : 1,
					"numinlets" : 1,
					"numoutlets" : 0,
					"patching_rect" : [ -51.8125, -8.875, 616.0625, 316.25 ],
					"proportion" : 0.698068,
					"style" : ""
				}

			}
, 			{
				"box" : 				{
					"id" : "obj-6",
					"maxclass" : "newobj",
					"numinlets" : 2,
					"numoutlets" : 1,
					"outlettype" : [ "int" ],
					"patching_rect" : [ 295.3125, 206.0, 29.5, 22.0 ],
					"style" : "",
					"text" : "+ 1"
				}

			}
, 			{
				"box" : 				{
					"comment" : "",
					"id" : "obj-4",
					"maxclass" : "outlet",
					"numinlets" : 1,
					"numoutlets" : 0,
					"patching_rect" : [ 303.0, 242.0, 30.0, 30.0 ],
					"style" : ""
				}

			}
, 			{
				"box" : 				{
					"comment" : "",
					"id" : "obj-3",
					"maxclass" : "outlet",
					"numinlets" : 1,
					"numoutlets" : 0,
					"patching_rect" : [ 182.625, 242.0, 30.0, 30.0 ],
					"style" : ""
				}

			}
, 			{
				"box" : 				{
					"comment" : "",
					"id" : "obj-2",
					"maxclass" : "inlet",
					"numinlets" : 0,
					"numoutlets" : 1,
					"outlettype" : [ "signal" ],
					"patching_rect" : [ 182.625, 200.25, 30.0, 30.0 ],
					"style" : ""
				}

			}
, 			{
				"box" : 				{
					"id" : "obj-41",
					"maxclass" : "button",
					"numinlets" : 1,
					"numoutlets" : 1,
					"outlettype" : [ "bang" ],
					"patching_rect" : [ 262.5, 180.0, 24.0, 24.0 ],
					"style" : ""
				}

			}
, 			{
				"box" : 				{
					"id" : "obj-38",
					"maxclass" : "newobj",
					"numinlets" : 2,
					"numoutlets" : 1,
					"outlettype" : [ "float" ],
					"patching_rect" : [ 262.5, 206.0, 31.0, 22.0 ],
					"style" : "",
					"text" : "+ 0."
				}

			}
, 			{
				"box" : 				{
					"id" : "obj-35",
					"maxclass" : "preset",
					"numinlets" : 1,
					"numoutlets" : 4,
					"outlettype" : [ "preset", "int", "preset", "int" ],
					"patching_rect" : [ 343.125, 177.5, 68.0, 17.0 ],
					"preset_data" : [ 						{
							"number" : 1,
							"data" : [ 5, "<invalid>", "dial", "float", 0.481482, 5, "<invalid>", "dial", "float", 0.78481, 5, "<invalid>", "dial", "float", 12.345679, 5, "<invalid>", "dial", "float", 0.734599, 5, "<invalid>", "dial", "float", 49.382717, 5, "<invalid>", "dial", "float", 45.0, 5, "<invalid>", "dial", "float", 0.0, 5, "<invalid>", "dial", "float", 0.545455, 5, "<invalid>", "dial", "float", 45.0, 5, "obj-31", "umenu", "int", 0, 5, "obj-36", "slider", "float", 0.131148, 5, "<invalid>", "toggle", "int", 1, 5, "obj-45", "flonum", "float", 0.78481, 5, "obj-46", "flonum", "float", 0.734599, 5, "obj-47", "flonum", "float", 54.382717, 5, "obj-49", "flonum", "float", 17.345678, 5, "obj-50", "flonum", "float", 0.131148, 5, "obj-51", "flonum", "float", 0.545455, 5, "obj-52", "flonum", "float", 45.0, 5, "<invalid>", "flonum", "float", 45.0, 5, "obj-56", "flonum", "float", 0.0 ]
						}
, 						{
							"number" : 2,
							"data" : [ 5, "<invalid>", "dial", "float", 0.777778, 5, "<invalid>", "dial", "float", 0.0, 5, "<invalid>", "dial", "float", 24.691359, 5, "<invalid>", "dial", "float", 0.0, 5, "<invalid>", "dial", "float", 37.037037, 5, "<invalid>", "dial", "float", 63.0, 5, "<invalid>", "dial", "float", 6.0, 5, "<invalid>", "dial", "float", 0.025974, 5, "<invalid>", "dial", "float", 3.0, 5, "<invalid>", "toggle", "int", 1, 5, "obj-31", "umenu", "int", 1, 5, "obj-36", "slider", "float", 21.0 ]
						}
, 						{
							"number" : 3,
							"data" : [ 5, "<invalid>", "dial", "float", 0.481482, 5, "<invalid>", "dial", "float", 0.9, 5, "<invalid>", "dial", "float", 373.0, 5, "<invalid>", "dial", "float", 0.75, 5, "<invalid>", "dial", "float", 493.0, 5, "<invalid>", "dial", "float", 93.0, 5, "<invalid>", "dial", "float", 0.0, 5, "<invalid>", "dial", "float", 0.88189, 5, "<invalid>", "dial", "float", 112.0, 5, "obj-31", "umenu", "int", 2, 5, "obj-36", "slider", "float", 0.1, 5, "obj-45", "flonum", "float", 0.9, 5, "obj-46", "flonum", "float", 0.75, 5, "obj-47", "flonum", "float", 498.0, 5, "obj-49", "flonum", "float", 378.0, 5, "obj-50", "flonum", "float", 0.1, 5, "obj-51", "flonum", "float", 0.88189, 5, "obj-52", "flonum", "float", 112.0, 5, "obj-56", "flonum", "float", 0.0 ]
						}
, 						{
							"number" : 4,
							"data" : [ 5, "<invalid>", "dial", "float", 0.407407, 5, "<invalid>", "dial", "float", 0.949368, 5, "<invalid>", "dial", "float", 296.296295, 5, "<invalid>", "dial", "float", 0.772152, 5, "<invalid>", "dial", "float", 339.506195, 5, "<invalid>", "dial", "float", 97.0, 5, "<invalid>", "dial", "float", 0.0, 5, "<invalid>", "dial", "float", 0.181818, 5, "<invalid>", "dial", "float", 6.0, 5, "obj-31", "umenu", "int", 3, 5, "obj-36", "slider", "float", 0.131148, 5, "obj-45", "flonum", "float", 0.949368, 5, "obj-46", "flonum", "float", 0.772152, 5, "obj-47", "flonum", "float", 344.506195, 5, "obj-49", "flonum", "float", 301.296295, 5, "obj-50", "flonum", "float", 0.131148, 5, "obj-51", "flonum", "float", 0.181818, 5, "obj-52", "flonum", "float", 6.0, 5, "obj-56", "flonum", "float", 0.0 ]
						}
, 						{
							"number" : 5,
							"data" : [ 5, "<invalid>", "dial", "float", 0.432099, 5, "<invalid>", "dial", "float", 0.924051, 5, "<invalid>", "dial", "float", 296.296295, 5, "<invalid>", "dial", "float", 0.949367, 5, "<invalid>", "dial", "float", 154.320999, 5, "<invalid>", "dial", "float", 97.0, 5, "<invalid>", "dial", "float", 10.0, 5, "<invalid>", "dial", "float", 0.103896, 5, "<invalid>", "dial", "float", 17.0, 5, "obj-31", "umenu", "int", 4, 5, "obj-36", "slider", "float", 1.0, 5, "obj-45", "flonum", "float", 0.924051, 5, "obj-46", "flonum", "float", 0.949367, 5, "obj-47", "flonum", "float", 159.320999, 5, "obj-49", "flonum", "float", 301.296295, 5, "obj-50", "flonum", "float", 11.0, 5, "obj-51", "flonum", "float", 0.103896, 5, "obj-52", "flonum", "float", 17.0, 5, "obj-56", "flonum", "float", 0.432099 ]
						}
 ],
					"style" : ""
				}

			}
, 			{
				"box" : 				{
					"id" : "obj-1",
					"maxclass" : "newobj",
					"numinlets" : 12,
					"numoutlets" : 2,
					"outlettype" : [ "signal", "signal" ],
					"patching_rect" : [ 179.8125, 242.0, 134.5, 22.0 ],
					"style" : "",
					"text" : "FXFlanger"
				}

			}
 ],
		"lines" : [ 			{
				"patchline" : 				{
					"destination" : [ "obj-3", 0 ],
					"disabled" : 0,
					"hidden" : 0,
					"source" : [ "obj-1", 0 ]
				}

			}
, 			{
				"patchline" : 				{
					"destination" : [ "obj-4", 0 ],
					"disabled" : 0,
					"hidden" : 0,
					"source" : [ "obj-1", 1 ]
				}

			}
, 			{
				"patchline" : 				{
					"destination" : [ "obj-1", 5 ],
					"disabled" : 0,
					"hidden" : 0,
					"source" : [ "obj-10", 0 ]
				}

			}
, 			{
				"patchline" : 				{
					"destination" : [ "obj-46", 0 ],
					"disabled" : 0,
					"hidden" : 0,
					"source" : [ "obj-10", 0 ]
				}

			}
, 			{
				"patchline" : 				{
					"destination" : [ "obj-1", 6 ],
					"disabled" : 0,
					"hidden" : 0,
					"source" : [ "obj-13", 0 ]
				}

			}
, 			{
				"patchline" : 				{
					"destination" : [ "obj-47", 0 ],
					"disabled" : 0,
					"hidden" : 0,
					"source" : [ "obj-13", 0 ]
				}

			}
, 			{
				"patchline" : 				{
					"destination" : [ "obj-1", 7 ],
					"disabled" : 0,
					"hidden" : 0,
					"source" : [ "obj-14", 0 ]
				}

			}
, 			{
				"patchline" : 				{
					"destination" : [ "obj-38", 0 ],
					"disabled" : 0,
					"hidden" : 0,
					"source" : [ "obj-15", 0 ]
				}

			}
, 			{
				"patchline" : 				{
					"destination" : [ "obj-1", 10 ],
					"disabled" : 0,
					"hidden" : 0,
					"source" : [ "obj-16", 0 ]
				}

			}
, 			{
				"patchline" : 				{
					"destination" : [ "obj-51", 0 ],
					"disabled" : 0,
					"hidden" : 0,
					"source" : [ "obj-16", 0 ]
				}

			}
, 			{
				"patchline" : 				{
					"destination" : [ "obj-1", 9 ],
					"disabled" : 0,
					"hidden" : 0,
					"source" : [ "obj-18", 0 ]
				}

			}
, 			{
				"patchline" : 				{
					"destination" : [ "obj-52", 0 ],
					"disabled" : 0,
					"hidden" : 0,
					"source" : [ "obj-18", 0 ]
				}

			}
, 			{
				"patchline" : 				{
					"destination" : [ "obj-1", 1 ],
					"disabled" : 0,
					"hidden" : 0,
					"source" : [ "obj-2", 0 ]
				}

			}
, 			{
				"patchline" : 				{
					"destination" : [ "obj-1", 0 ],
					"disabled" : 0,
					"hidden" : 0,
					"source" : [ "obj-2", 0 ]
				}

			}
, 			{
				"patchline" : 				{
					"destination" : [ "obj-6", 0 ],
					"disabled" : 0,
					"hidden" : 0,
					"source" : [ "obj-31", 0 ]
				}

			}
, 			{
				"patchline" : 				{
					"destination" : [ "obj-38", 1 ],
					"disabled" : 0,
					"hidden" : 0,
					"source" : [ "obj-36", 0 ]
				}

			}
, 			{
				"patchline" : 				{
					"destination" : [ "obj-41", 0 ],
					"disabled" : 0,
					"hidden" : 0,
					"source" : [ "obj-36", 0 ]
				}

			}
, 			{
				"patchline" : 				{
					"destination" : [ "obj-1", 8 ],
					"disabled" : 0,
					"hidden" : 0,
					"source" : [ "obj-38", 0 ]
				}

			}
, 			{
				"patchline" : 				{
					"destination" : [ "obj-50", 0 ],
					"disabled" : 0,
					"hidden" : 0,
					"source" : [ "obj-38", 0 ]
				}

			}
, 			{
				"patchline" : 				{
					"destination" : [ "obj-38", 0 ],
					"disabled" : 0,
					"hidden" : 0,
					"source" : [ "obj-41", 0 ]
				}

			}
, 			{
				"patchline" : 				{
					"destination" : [ "obj-1", 3 ],
					"disabled" : 0,
					"hidden" : 0,
					"source" : [ "obj-5", 0 ]
				}

			}
, 			{
				"patchline" : 				{
					"destination" : [ "obj-56", 0 ],
					"disabled" : 0,
					"hidden" : 0,
					"source" : [ "obj-5", 0 ]
				}

			}
, 			{
				"patchline" : 				{
					"destination" : [ "obj-1", 11 ],
					"disabled" : 0,
					"hidden" : 0,
					"source" : [ "obj-6", 0 ]
				}

			}
, 			{
				"patchline" : 				{
					"destination" : [ "obj-35", 0 ],
					"disabled" : 0,
					"hidden" : 0,
					"source" : [ "obj-6", 0 ]
				}

			}
, 			{
				"patchline" : 				{
					"destination" : [ "obj-1", 2 ],
					"disabled" : 0,
					"hidden" : 0,
					"source" : [ "obj-8", 0 ]
				}

			}
, 			{
				"patchline" : 				{
					"destination" : [ "obj-45", 0 ],
					"disabled" : 0,
					"hidden" : 0,
					"source" : [ "obj-8", 0 ]
				}

			}
, 			{
				"patchline" : 				{
					"destination" : [ "obj-1", 4 ],
					"disabled" : 0,
					"hidden" : 0,
					"source" : [ "obj-9", 0 ]
				}

			}
, 			{
				"patchline" : 				{
					"destination" : [ "obj-49", 0 ],
					"disabled" : 0,
					"hidden" : 0,
					"source" : [ "obj-9", 0 ]
				}

			}
 ],
		"styles" : [ 			{
				"name" : "newobjBlue-1",
				"default" : 				{
					"accentcolor" : [ 0.317647, 0.654902, 0.976471, 1.0 ]
				}
,
				"parentstyle" : "",
				"multi" : 0
			}
, 			{
				"name" : "newobjYellow-1",
				"default" : 				{
					"accentcolor" : [ 0.82517, 0.78181, 0.059545, 1.0 ],
					"fontsize" : [ 12.059008 ]
				}
,
				"parentstyle" : "",
				"multi" : 0
			}
, 			{
				"name" : "numberGold-1",
				"default" : 				{
					"accentcolor" : [ 0.764706, 0.592157, 0.101961, 1.0 ]
				}
,
				"parentstyle" : "",
				"multi" : 0
			}
, 			{
				"name" : "sliderGold-1",
				"default" : 				{
					"color" : [ 0.907107, 0.934609, 0.842715, 1.0 ],
					"accentcolor" : [ 0.764706, 0.592157, 0.101961, 1.0 ]
				}
,
				"parentstyle" : "",
				"multi" : 0
			}
 ]
	}

}
